<?xml version="1.0" standalone="no"?>
<!DOCTYPE svg PUBLIC "-//W3C//DTD SVG 20010904//EN"
 "http://www.w3.org/TR/2001/REC-SVG-20010904/DTD/svg10.dtd">
<svg version="1.0" xmlns="http://www.w3.org/2000/svg"
 width="240.000000pt" height="240.000000pt" viewBox="0 0 240.000000 240.000000"
 preserveAspectRatio="xMidYMid meet">

<g transform="translate(0.000000,240.000000) scale(0.100000,-0.100000)"
fill="#000000" stroke="none">
<path d="M180 2391 c-69 -21 -121 -65 -156 -131 -18 -33 -19 -79 -19 -1060 0
-981 1 -1027 19 -1060 26 -49 64 -88 111 -113 l40 -22 1030 0 1030 0 40 22
c46 24 75 54 101 103 18 33 19 81 22 1035 2 702 0 1015 -8 1051 -13 61 -63
124 -124 157 l-41 22 -1010 2 c-556 1 -1021 -2 -1035 -6z m1467 -185 c-22 -33
-22 -98 1 -135 10 -16 67 -65 127 -108 242 -174 274 -198 279 -210 6 -13 -44
16 -129 77 -203 146 -273 188 -308 186 -43 -4 -299 -186 -307 -220 -7 -26 -48
-29 -63 -4 -14 21 7 48 38 48 26 0 281 189 307 228 23 34 23 105 1 139 -16 25
-16 26 7 45 23 19 24 19 43 -1 19 -19 19 -21 4 -45z m-545 -363 c258 -180 222
-132 269 -358 l23 -110 98 200 c71 146 96 207 93 227 -4 26 15 58 35 58 19 0
40 -32 34 -54 -4 -17 29 -86 124 -262 71 -131 152 -282 180 -336 l52 -96 -37
-69 c-34 -65 -176 -327 -277 -515 -30 -55 -46 -97 -44 -114 4 -33 -24 -54 -49
-38 -12 8 -17 21 -15 38 2 18 -20 72 -66 159 -38 73 -86 165 -107 205 -35 68
-51 89 -60 80 -3 -2 -32 -80 -66 -174 l-61 -169 -142 -143 c-194 -198 -231
-228 -259 -214 -22 11 -22 11 3 11 19 1 69 45 201 179 171 172 177 179 204
252 65 180 93 267 91 289 -1 32 27 50 54 33 12 -7 58 -12 125 -12 l105 0 0 95
0 95 -164 0 c-99 0 -167 -4 -171 -10 -9 -14 -41 -12 -54 4 -26 31 19 68 49 41
13 -11 42 -15 126 -15 60 0 133 3 162 6 l52 7 0 98 0 99 -94 0 c-53 0 -98 -4
-101 -10 -3 -5 -17 -10 -30 -10 -26 0 -43 33 -27 53 9 11 -1 71 -38 253 l-11
52 -249 178 c-138 98 -250 182 -250 187 0 12 25 -5 292 -190z m-132 -339 l131
-391 -137 -404 c-75 -222 -143 -426 -151 -452 -8 -27 -17 -46 -20 -43 -7 7 61
223 267 844 l17 53 -74 227 c-145 440 -213 657 -212 677 0 18 45 -110 179
-511z m-535 296 c-3 -5 -43 -39 -89 -75 -67 -52 -84 -71 -89 -97 -3 -18 -15
-76 -27 -128 -28 -129 -48 -220 -66 -311 l-16 -77 55 -153 c31 -85 77 -217
103 -294 41 -120 53 -147 92 -188 59 -65 44 -74 -17 -12 -40 41 -55 67 -81
140 -17 50 -54 153 -81 230 -28 77 -61 171 -74 208 l-24 69 30 141 c16 78 41
198 55 267 14 69 28 133 30 142 3 10 47 47 97 83 88 62 115 76 102 55z m1445
-1475 l-175 -175 -90 0 -90 0 -115 125 c-62 69 -125 131 -139 138 -29 14 -34
45 -10 60 25 15 49 1 49 -28 0 -20 28 -57 112 -146 l112 -119 85 0 85 0 168
166 c93 92 171 164 175 160 4 -4 -71 -85 -167 -181z"/>
<path d="M1562 1675 c-23 -47 -42 -87 -42 -90 0 -3 20 -5 45 -5 l45 0 0 90 c0
50 -1 90 -3 90 -1 0 -22 -38 -45 -85z"/>
<path d="M1630 1673 c0 -51 2 -93 5 -93 3 0 14 5 24 12 26 16 51 3 51 -26 0
-28 -35 -45 -53 -27 -23 23 -27 8 -27 -89 l0 -100 62 0 c44 0 67 5 80 17 24
22 53 6 53 -28 0 -18 -6 -25 -24 -27 -13 -2 -28 1 -34 7 -6 6 -39 11 -74 11
l-63 0 0 -99 c0 -116 -6 -111 131 -111 65 0 90 4 99 15 17 21 37 19 51 -6 9
-17 8 -25 -5 -37 -12 -13 -20 -13 -41 -4 -15 7 -72 12 -130 12 l-105 0 0 -95
0 -95 63 0 c35 0 68 5 74 11 6 6 21 9 34 7 18 -2 24 -9 24 -27 0 -34 -29 -50
-52 -29 -14 13 -31 15 -80 11 l-63 -6 0 -98 c0 -55 2 -99 5 -99 3 0 14 5 24
12 26 16 51 3 51 -27 0 -30 -25 -43 -51 -27 -10 7 -21 12 -24 12 -3 0 -5 -41
-5 -92 0 -55 4 -88 9 -83 5 6 57 98 116 205 59 107 136 246 171 308 35 63 64
118 64 123 0 9 -298 554 -341 624 l-19 30 0 -92z"/>
<path d="M1502 1548 c-18 -23 -90 -183 -85 -190 2 -5 47 -8 99 -8 l94 0 0 99
0 99 -31 6 c-46 9 -65 7 -77 -6z"/>
<path d="M1395 881 c-3 -6 16 -53 43 -104 l49 -92 61 -3 62 -3 0 101 0 100
-89 0 c-49 0 -96 3 -104 6 -8 3 -18 1 -22 -5z"/>
<path d="M1510 644 c0 -5 89 -174 97 -183 1 -2 3 39 3 92 l0 97 -50 0 c-27 0
-50 -3 -50 -6z"/>
</g>
</svg>
